<svg id="Layer_1" data-name="Layer 1" xmlns="http://www.w3.org/2000/svg" viewBox="0 0 20 20">
	<title>B3C</title>
	<rect x="0.5" y="0.5" width="19" height="19"/>
	<path d="M19,1V19H1V1H19m1-1H0V20H20V0Z"/>
	<path d="M3.54,13.89h-.2l-.08,0-.06,0-.14,0a1.2,1.2,0,0,1-.62.27,1.29,1.29,0,0,1-.65,0,1.14,1.14,0,0,1-.52-.37,1,1,0,0,1-.21-.68,1.4,1.4,0,0,1,.11-.44.88.88,0,0,1,0-.24c.09-.5.2-1,.32-1.58S1.73,9.58,1.9,9a15.05,15.05,0,0,1,.59-1.55,7.1,7.1,0,0,1,.76-1.33A2.78,2.78,0,0,1,4,5.42,3.13,3.13,0,0,1,5,5,2.82,2.82,0,0,1,6,5a2.43,2.43,0,0,1,.91.28H7a2.18,2.18,0,0,1,.47.38,3.42,3.42,0,0,1,.36.4,1.89,1.89,0,0,1,.39,1,1.73,1.73,0,0,1-.1.58,3,3,0,0,1-.31.58,4.34,4.34,0,0,1-.42.54,4.77,4.77,0,0,1-.52.48,3.82,3.82,0,0,1-.55.4.9.9,0,0,0,.28.16,2.15,2.15,0,0,1,.35.17.7.7,0,0,1,.36.52,1.87,1.87,0,0,1,0,.84,3.26,3.26,0,0,1-.41,1,3.33,3.33,0,0,1-.77.87,3.57,3.57,0,0,1-1.1.62A3.4,3.4,0,0,1,3.54,13.89Zm0-1.12a.63.63,0,0,1,.23,0H4a1.13,1.13,0,0,0,.32-.1,3.32,3.32,0,0,0,.52-.29,1.48,1.48,0,0,0,.23-.3.92.92,0,0,0,.14-.39c0-.2,0-.33-.11-.39a.53.53,0,0,0-.32-.09,1.85,1.85,0,0,0-.44.06,2.67,2.67,0,0,1-.47.07v0c0,.15-.07.27-.11.38s-.07.22-.1.32-.05.21-.08.33-.05.25-.07.4ZM5.11,7.36c-.1.11-.18.21-.25.3A1.43,1.43,0,0,0,4.7,8a2.55,2.55,0,0,0-.11.33,3.26,3.26,0,0,0-.1.42l.45-.17a4.09,4.09,0,0,0,.42-.16,1.72,1.72,0,0,0,.38-.2A1.17,1.17,0,0,0,6,7.89l.13-.21a.29.29,0,0,0,0-.27A1,1,0,0,0,6,7.24L5.77,7.1a.26.26,0,0,1-.21.06.38.38,0,0,0-.23,0A.57.57,0,0,0,5.11,7.36Z" style="fill:#ff7bac"/>
	<path d="M8.9,8.34a.37.37,0,0,1-.2-.13.34.34,0,0,1,0-.22.62.62,0,0,1,.11-.27A1.18,1.18,0,0,1,9,7.44a3.45,3.45,0,0,1,.33-.32l.43-.39a5,5,0,0,0,.39-.41,1,1,0,0,0,.22-.39l-.54.16a3,3,0,0,1-.39.11.63.63,0,0,1-.27,0A.4.4,0,0,1,9,6.08a.4.4,0,0,1-.08-.16.67.67,0,0,1,0-.24.4.4,0,0,1,.06-.22.3.3,0,0,1,.21-.14.19.19,0,0,0,.11-.07l.08-.11A.31.31,0,0,1,9.39,5,.34.34,0,0,1,9.55,5L10,4.8a3.68,3.68,0,0,1,.47-.15,2,2,0,0,1,.48-.07,1,1,0,0,1,.44.08,1,1,0,0,1,.36.25.85.85,0,0,1,.23.39,1.29,1.29,0,0,1,0,.53,2.07,2.07,0,0,1-.21.69,2.7,2.7,0,0,1-.18.25L11.37,7l-.27.21-.32.24a.83.83,0,0,1,.57.29,1,1,0,0,1,.23.58,2.32,2.32,0,0,1-.08.76,3.36,3.36,0,0,1-.34.78,1.51,1.51,0,0,1-.45.49,2.2,2.2,0,0,1-.59.31,3,3,0,0,1-.67.19,5.88,5.88,0,0,1-.68.1,1.7,1.7,0,0,1-.84-.11.59.59,0,0,1-.39-.4.49.49,0,0,1,0-.36.83.83,0,0,1,.17-.32A.67.67,0,0,1,8,9.56a.37.37,0,0,1,.31,0l.31,0h.26a1,1,0,0,0,.28-.07,4.1,4.1,0,0,0,.39-.16,1.43,1.43,0,0,0,.3-.22,1.18,1.18,0,0,0,.25-.31.42.42,0,0,0,.07-.27c0-.07-.09-.11-.23-.12h-.4A2.15,2.15,0,0,1,8.9,8.34Z" style="fill:#ff7bac"/>
	<path d="M16.65,13.34a3.29,3.29,0,0,1-.59.31,5.35,5.35,0,0,1-.67.24,4.48,4.48,0,0,1-.72.11A3.13,3.13,0,0,1,14,14a4.57,4.57,0,0,1-.71-.2,1.9,1.9,0,0,1-.59-.37,1.71,1.71,0,0,1-.43-.6,2.81,2.81,0,0,1-.23-.92,5.34,5.34,0,0,1,0-1.44,7,7,0,0,1,.34-1.38A6.34,6.34,0,0,1,13,7.82a7.8,7.8,0,0,1,.74-1.05A4.92,4.92,0,0,1,14.51,6a3.21,3.21,0,0,1,.79-.47,3.33,3.33,0,0,1,1-.33,3.71,3.71,0,0,1,1-.05,2.27,2.27,0,0,1,1,.33,1.53,1.53,0,0,1,.55.66A2,2,0,0,1,19,7a3.31,3.31,0,0,1-.26,1.09,1.09,1.09,0,0,1-.25.38,1.54,1.54,0,0,1-.36.27,1.65,1.65,0,0,1-.42.16,1.51,1.51,0,0,1-.41.06c-.32,0-.52-.1-.6-.29a1,1,0,0,1,0-.71.39.39,0,0,0-.07-.25.18.18,0,0,0-.15-.07.93.93,0,0,0-.22,0L16,7.79l-.22.12-.21.17a1.7,1.7,0,0,0-.27.27,5,5,0,0,0-.34.43,4.48,4.48,0,0,0-.42.72,4.28,4.28,0,0,0-.25.67,2.46,2.46,0,0,0-.1.56,2.91,2.91,0,0,0,0,.42,1.15,1.15,0,0,0,.13.34.78.78,0,0,0,.21.23.94.94,0,0,0,.47.16.75.75,0,0,0,.42-.11l.31-.18a.91.91,0,0,1,.35-.12,1.06,1.06,0,0,1,.55.07c.16.05.25.12.26.22a.86.86,0,0,1,0,.32,1.4,1.4,0,0,0,0,.29c0,.09.09.14.23.16a.27.27,0,0,1,.07.22.53.53,0,0,1-.11.21,2,2,0,0,1-.21.2Z" style="fill:#ff7bac"/>
</svg>
